<svg width="1217" height="1038" viewBox="0 0 1217 1038" fill="none" xmlns="http://www.w3.org/2000/svg">
<g filter="url(#filter0_b_140_32)">
<path fill-rule="evenodd" clip-rule="evenodd" d="M569 -42H-44V1038H569V478.537L569.744 477.24C569.496 477.24 569.248 477.239 569 477.238V-42ZM569 477.238C560.381 477.194 551.128 476.403 543.391 475.741H543.39H543.389C537.717 475.256 532.859 474.84 529.664 474.84C516.224 474.84 506.144 482.04 498.224 494.52V477.24H447.824C451.664 487.32 452.864 501.72 452.864 512.52V567.72C452.864 578.52 451.664 592.92 447.824 603H503.264C499.424 592.92 498.224 578.52 498.224 567.72V521.64C508.304 505.56 513.824 501.72 521.504 501.72C534.704 501.72 539.744 512.76 539.744 529.56L569 478.537V477.238ZM706.28 603C702.68 592.92 701.24 578.52 701.24 567.72V532.68C701.24 521.64 702.68 507.48 706.28 497.4H651.08C654.68 507.48 656.12 521.64 656.12 532.68V567.72C656.12 575.4 655.4 584.52 653.72 592.92H652.76C630.2 592.92 621.8 559.8 621.8 513.72C621.8 467.64 630.2 436.92 652.28 436.92C673.16 436.92 681.32 464.52 687.8 489L703.4 426.84C693.779 426.84 684.693 426.172 676.105 425.541C668.411 424.976 661.118 424.44 654.2 424.44C603.56 424.44 574.04 454.68 574.04 513.72C574.04 577.32 608.36 605.4 653 605.4C659.207 605.4 666.539 604.888 674.431 604.337H674.432L674.436 604.337H674.437H674.438C683.633 603.695 693.586 603 703.4 603H706.28ZM774.592 603C770.752 592.92 769.552 578.52 769.552 567.72V521.64C779.632 505.56 785.152 501.72 792.832 501.72C806.032 501.72 811.072 512.76 811.072 529.56L841.072 477.24C832.244 477.24 822.679 476.422 814.719 475.741H814.718H814.718C809.045 475.256 804.187 474.84 800.992 474.84C787.552 474.84 777.472 482.04 769.552 494.52V477.24H719.152C722.992 487.32 724.192 501.72 724.192 512.52V567.72C724.192 578.52 722.992 592.92 719.152 603H774.592ZM902.328 474.84C861.768 474.84 835.128 501 835.128 540.12C835.128 579.24 861.768 605.4 902.328 605.4C942.408 605.4 969.288 579.24 969.288 540.12C969.288 501 942.408 474.84 902.328 474.84ZM902.328 592.92C889.128 592.92 882.888 571.8 882.888 540.12C882.888 508.44 889.128 487.32 902.328 487.32C915.288 487.32 921.288 508.44 921.288 540.12C921.288 571.8 915.288 592.92 902.328 592.92ZM1048.11 569.387C1047.94 568.821 1047.78 568.264 1047.61 567.72L1028.89 512.52C1025.29 501.96 1021.45 487.32 1022.65 477.24H965.774C972.014 487.32 978.494 501.96 982.094 512.52L1000.81 567.72C1004.17 578.28 1005.85 592.92 1004.41 603H1061.29C1060.33 592.92 1061.77 578.04 1065.61 567.72L1085.29 512.52C1089.13 502.2 1095.85 487.32 1102.09 477.24H1079.05C1080.25 487.32 1075.93 502.2 1072.09 512.52L1052.65 567.72C1051.69 570.12 1050.73 572.52 1050.01 575.4C1049.27 573.359 1048.67 571.317 1048.11 569.387ZM1161.69 474.84C1125.69 474.84 1098.09 499.8 1098.09 539.16C1098.09 581.16 1129.77 605.4 1171.77 605.4C1178.52 605.4 1185.28 604.815 1192.11 604.223C1199.13 603.615 1206.24 603 1213.53 603L1204.17 562.2C1196.25 578.04 1188.33 592.92 1173.21 592.92C1158.09 592.92 1148.97 578.04 1146.57 551.4H1216.17V538.92C1216.17 504.84 1201.53 474.84 1161.69 474.84ZM1146.09 538.92V537C1146.09 508.68 1152.09 487.56 1161.93 487.56C1171.53 487.56 1175.61 508.44 1175.61 538.92H1146.09ZM106.6 498.84H111.64C121.48 498.84 130.6 501.96 138.76 507.72L144.28 511.56V473.64L138.76 477.48C130.6 483.24 121.48 486.36 111.64 486.36H106.6V439.56H119.08C139.24 439.56 155.32 447.24 167.08 463.56L176.92 477.24L171.88 426.84H56.2C60.04 436.92 61.24 451.32 61.24 462.12V567.72C61.24 578.52 60.04 592.92 56.2 603H176.92L181.96 552.6L172.12 566.28C160.36 582.6 144.28 590.52 124.12 590.52H106.6V498.84ZM267.482 569.387L267.48 569.38C267.315 568.817 267.152 568.262 266.989 567.72L248.269 512.52C244.669 501.96 240.829 487.32 242.029 477.24H185.149C191.389 487.32 197.869 501.96 201.469 512.52L220.189 567.72C223.549 578.28 225.229 592.92 223.789 603H280.669C279.709 592.92 281.149 578.04 284.989 567.72L304.669 512.52C308.509 502.2 315.229 487.32 321.469 477.24H298.429C299.629 487.32 295.309 502.2 291.469 512.52L272.029 567.72C271.069 570.12 270.109 572.52 269.389 575.4C268.647 573.359 268.049 571.319 267.483 569.389L267.482 569.387ZM381.066 474.84C345.066 474.84 317.466 499.8 317.466 539.16C317.466 581.16 349.146 605.4 391.146 605.4C397.899 605.4 404.651 604.815 411.49 604.223C418.506 603.615 425.614 603 432.906 603L423.546 562.2C415.626 578.04 407.706 592.92 392.586 592.92C377.466 592.92 368.346 578.04 365.946 551.4H435.546V538.92C435.546 504.84 420.906 474.84 381.066 474.84ZM365.466 538.92V537C365.466 508.68 371.466 487.56 381.306 487.56C390.906 487.56 394.986 508.44 394.986 538.92H365.466ZM358.22 619.88L346.52 666.5C341.84 648.14 335.72 627.44 319.52 627.44C309.08 627.44 302.06 636.62 302.06 644.72C302.06 655.532 314.104 664.247 327.395 673.863C343.754 685.698 362 698.9 362 719.06C362 740.12 342.02 753.8 306.02 753.8C299.382 753.8 292.968 753.353 286.533 752.905C280.053 752.453 273.553 752 266.78 752L278.48 705.38C283.16 723.92 289.46 744.44 308.18 744.44C319.34 744.44 326.72 737.06 326.72 727.34C326.72 714.569 313.997 705.962 300.275 696.68C284.212 685.814 266.78 674.022 266.78 653.54C266.78 631.22 287.3 618.08 320.06 618.08C326.14 618.08 332.177 618.511 338.34 618.952H338.341C344.767 619.411 351.329 619.88 358.22 619.88ZM407.429 688.28V743C409.229 743.9 411.029 744.44 413.189 744.44C424.349 744.44 431.549 729.32 431.549 700.7C431.549 684.68 429.209 672.8 421.829 672.8C418.409 672.8 413.009 675.14 407.429 688.28ZM407.429 763.34C407.429 771.44 408.329 782.24 411.209 789.8H369.629C372.509 782.24 373.409 771.44 373.409 763.34V684.14C373.409 676.04 372.509 665.24 369.629 657.68H407.429V670.28C414.809 661.28 425.249 655.88 435.689 655.88C452.609 655.88 467.549 669.92 467.549 699.08C467.549 735.62 443.789 753.8 415.169 753.8C412.649 753.8 409.949 753.8 407.429 753.62V763.34ZM514.317 655.88C547.437 655.88 562.377 670.82 562.377 700.34V725.54C562.377 733.64 563.277 744.44 565.977 752H528.357V739.4C520.797 748.4 510.177 753.8 499.197 753.8C484.257 753.8 473.817 743.72 473.817 728.6C473.817 707.9 493.617 695.48 519.717 695.48C522.417 695.48 525.297 695.48 527.997 695.84C527.097 676.94 522.777 665.24 513.417 665.24C504.237 665.24 498.297 676.4 492.357 688.28L485.337 657.68C490.628 657.68 494.883 657.248 499.223 656.807H499.224C503.741 656.348 508.35 655.88 514.317 655.88ZM528.357 721.4V706.46C526.377 705.38 524.397 704.84 522.057 704.84C514.497 704.84 509.817 711.14 509.817 723.2C509.817 730.22 511.617 736.88 515.217 736.88C517.197 736.88 522.597 734.54 528.357 721.4ZM573.158 704.12C573.158 674.6 593.858 655.88 627.878 655.88C633.278 655.88 638.543 656.33 643.808 656.78L643.81 656.78C649.074 657.23 654.339 657.68 659.738 657.68L652.718 688.28C646.778 676.4 640.838 665.24 629.858 665.24C616.898 665.24 609.158 681.26 609.158 705.74C609.158 729.32 616.358 744.44 629.498 744.44C640.838 744.44 646.778 733.28 652.718 721.4L659.738 752C654.269 752 648.938 752.462 643.676 752.917C638.547 753.361 633.482 753.8 628.418 753.8C596.918 753.8 573.158 735.62 573.158 704.12ZM664.037 704.12C664.037 674.6 684.737 655.88 711.737 655.88C741.617 655.88 752.597 678.38 752.597 703.94V713.3H700.397C702.197 733.28 709.037 744.44 720.377 744.44C731.717 744.44 737.657 733.28 743.597 721.4L750.617 752C745.148 752 739.817 752.462 734.555 752.917C729.426 753.361 724.361 753.8 719.297 753.8C687.797 753.8 664.037 735.62 664.037 704.12ZM700.037 702.5V703.94H722.177C722.177 681.08 719.117 665.42 711.917 665.42C704.537 665.42 700.037 681.26 700.037 702.5ZM761.085 752L768.105 721.4C774.045 733.28 779.985 744.44 795.645 744.44C804.465 744.44 809.865 740.84 809.865 735.08C809.865 727.281 800.329 722.05 789.689 716.214C776.266 708.851 761.085 700.524 761.085 684.86C761.085 666.5 781.425 655.88 808.785 655.88C814.662 655.88 820.258 656.348 825.741 656.807C831.004 657.248 836.163 657.68 841.365 657.68L834.525 688.28C828.405 676.4 822.645 665.24 810.405 665.24C802.665 665.24 796.365 669.74 796.365 675.68C796.365 683.036 805.992 688.368 816.692 694.295C830.078 701.709 845.145 710.054 845.145 724.46C845.145 743.18 819.945 753.8 793.305 753.8C787.68 753.8 782.283 753.343 776.931 752.889L776.93 752.889H776.929C771.663 752.443 766.441 752 761.085 752Z" fill="#EAE5E1" fill-opacity="0.4"/>
</g>
<defs>
<filter id="filter0_b_140_32" x="-64" y="-62" width="1300.17" height="1120" filterUnits="userSpaceOnUse" color-interpolation-filters="sRGB">
<feFlood flood-opacity="0" result="BackgroundImageFix"/>
<feGaussianBlur in="BackgroundImageFix" stdDeviation="10"/>
<feComposite in2="SourceAlpha" operator="in" result="effect1_backgroundBlur_140_32"/>
<feBlend mode="normal" in="SourceGraphic" in2="effect1_backgroundBlur_140_32" result="shape"/>
</filter>
</defs>
</svg>
