<svg width="1261" height="2350" viewBox="0 0 1261 2350" fill="none" xmlns="http://www.w3.org/2000/svg">
<path fill-rule="evenodd" clip-rule="evenodd" d="M0 0H613V635V1154.24C604.381 1154.19 595.129 1153.4 587.389 1152.74L587.312 1152.73C581.674 1152.25 576.846 1151.84 573.664 1151.84C560.225 1151.84 550.145 1159.04 542.225 1171.52V1154.24H491.824C495.664 1164.32 496.863 1178.72 496.863 1189.52V1244.72C496.863 1255.52 495.664 1269.92 491.824 1280H547.264C543.424 1269.92 542.225 1255.52 542.225 1244.72V1198.64C552.305 1182.56 557.824 1178.72 565.504 1178.72C578.703 1178.72 583.744 1189.76 583.744 1206.56L613 1155.54V1715V2350H0V1715V635V0ZM613 1155.54V1154.24L613.744 1154.24L613 1155.54ZM750.279 1280C746.68 1269.92 745.24 1255.52 745.24 1244.72V1209.68C745.24 1198.64 746.68 1184.48 750.279 1174.4H695.08C698.68 1184.48 700.119 1198.64 700.119 1209.68V1244.72C700.119 1252.4 699.4 1261.52 697.721 1269.92H696.76C674.199 1269.92 665.801 1236.8 665.801 1190.72C665.801 1144.64 674.199 1113.92 696.279 1113.92C717.16 1113.92 725.32 1141.52 731.801 1166L747.4 1103.84C737.779 1103.84 728.693 1103.17 720.105 1102.54C713.656 1102.07 707.488 1101.61 701.586 1101.48C700.447 1101.45 699.318 1101.44 698.199 1101.44C647.561 1101.44 618.039 1131.68 618.039 1190.72C618.039 1254.32 652.359 1282.4 697 1282.4C703.207 1282.4 710.539 1281.89 718.438 1281.34L718.514 1281.33H718.531C727.699 1280.69 737.619 1280 747.4 1280H750.279ZM818.592 1280C814.752 1269.92 813.553 1255.52 813.553 1244.72V1198.64C823.633 1182.56 829.152 1178.72 836.832 1178.72C850.031 1178.72 855.072 1189.76 855.072 1206.56L885.072 1154.24C876.244 1154.24 866.68 1153.42 858.717 1152.74C856.439 1152.54 854.293 1152.36 852.332 1152.21C849.41 1151.99 846.904 1151.84 844.992 1151.84C831.553 1151.84 821.473 1159.04 813.553 1171.52V1154.24H763.152C766.992 1164.32 768.191 1178.72 768.191 1189.52V1244.72C768.191 1255.52 766.992 1269.92 763.152 1280H818.592ZM946.328 1151.84C905.768 1151.84 879.129 1178 879.129 1217.12C879.129 1256.24 905.768 1282.4 946.328 1282.4C986.408 1282.4 1013.29 1256.24 1013.29 1217.12C1013.29 1178 986.408 1151.84 946.328 1151.84ZM946.328 1269.92C933.129 1269.92 926.889 1248.8 926.889 1217.12C926.889 1185.44 933.129 1164.32 946.328 1164.32C959.289 1164.32 965.289 1185.44 965.289 1217.12C965.289 1248.8 959.289 1269.92 946.328 1269.92ZM1092.11 1246.39L1091.62 1244.72L1072.89 1189.52C1069.29 1178.96 1065.46 1164.32 1066.65 1154.24H1009.77C1016.01 1164.32 1022.49 1178.96 1026.09 1189.52L1044.81 1244.72C1048.17 1255.28 1049.85 1269.92 1048.41 1280H1105.29C1104.33 1269.92 1105.77 1255.04 1109.62 1244.72L1129.29 1189.52C1133.13 1179.2 1139.85 1164.32 1146.09 1154.24H1123.05C1124.25 1164.32 1119.93 1179.2 1116.09 1189.52L1096.65 1244.72C1095.7 1247.12 1094.73 1249.52 1094.01 1252.4C1093.27 1250.36 1092.67 1248.32 1092.11 1246.39ZM1205.69 1151.84C1169.69 1151.84 1142.09 1176.8 1142.09 1216.16C1142.09 1258.16 1173.77 1282.4 1215.77 1282.4C1218.74 1282.4 1221.72 1282.29 1224.7 1282.11C1228.47 1281.88 1232.25 1281.56 1236.06 1281.23L1236.12 1281.22C1243.13 1280.62 1250.24 1280 1257.53 1280L1248.17 1239.2C1240.25 1255.04 1232.33 1269.92 1217.21 1269.92C1202.09 1269.92 1192.97 1255.04 1190.57 1228.4H1260.17V1215.92C1260.17 1181.84 1245.53 1151.84 1205.69 1151.84ZM1190.09 1215.92V1214C1190.09 1185.68 1196.09 1164.56 1205.93 1164.56C1215.53 1164.56 1219.61 1185.44 1219.61 1215.92H1190.09ZM150.6 1175.84H155.641C165.48 1175.84 174.6 1178.96 182.76 1184.72L188.279 1188.56V1150.64L182.76 1154.48C174.6 1160.24 165.48 1163.36 155.641 1163.36H150.6V1116.56H163.08C183.24 1116.56 199.32 1124.24 211.08 1140.56L220.92 1154.24L215.881 1103.84H100.199C104.039 1113.92 105.24 1128.32 105.24 1139.12V1244.72C105.24 1255.52 104.039 1269.92 100.199 1280H220.92L225.961 1229.6L216.119 1243.28C204.359 1259.6 188.279 1267.52 168.119 1267.52H150.6V1175.84ZM311.482 1246.39L310.99 1244.72L292.27 1189.52C288.67 1178.96 284.83 1164.32 286.029 1154.24H229.148C235.389 1164.32 241.869 1178.96 245.469 1189.52L264.189 1244.72C267.549 1255.28 269.229 1269.92 267.789 1280H324.67C323.709 1269.92 325.148 1255.04 328.99 1244.72L348.67 1189.52C352.51 1179.2 359.229 1164.32 365.469 1154.24H342.43C343.629 1164.32 339.309 1179.2 335.469 1189.52L316.029 1244.72C315.07 1247.12 314.109 1249.52 313.389 1252.4C313.021 1251.39 312.689 1250.38 312.379 1249.38C312.062 1248.37 311.768 1247.36 311.482 1246.39ZM425.066 1151.84C389.066 1151.84 361.467 1176.8 361.467 1216.16C361.467 1258.16 393.146 1282.4 435.146 1282.4C441.879 1282.4 448.611 1281.82 455.432 1281.23L455.49 1281.22C462.506 1280.62 469.613 1280 476.906 1280L467.547 1239.2C459.627 1255.04 451.707 1269.92 436.586 1269.92C421.467 1269.92 412.346 1255.04 409.945 1228.4H479.547V1215.92C479.547 1181.84 464.906 1151.84 425.066 1151.84ZM409.467 1215.92V1214C409.467 1185.68 415.467 1164.56 425.307 1164.56C434.906 1164.56 438.986 1185.44 438.986 1215.92H409.467ZM402.221 1296.88L390.52 1343.5C385.84 1325.14 379.721 1304.44 363.52 1304.44C353.08 1304.44 346.061 1313.62 346.061 1321.72C346.061 1332.53 358.104 1341.25 371.395 1350.86C387.754 1362.7 406 1375.9 406 1396.06C406 1417.12 386.02 1430.8 350.02 1430.8C343.383 1430.8 336.969 1430.35 330.533 1429.9H330.51H330.486C324.021 1429.45 317.537 1429 310.779 1429L322.48 1382.38C327.16 1400.92 333.461 1421.44 352.18 1421.44C363.34 1421.44 370.721 1414.06 370.721 1404.34C370.721 1391.57 357.996 1382.96 344.275 1373.68C328.213 1362.81 310.779 1351.02 310.779 1330.54C310.779 1308.22 331.301 1295.08 364.061 1295.08C368.887 1295.08 373.686 1295.35 378.541 1295.68C379.787 1295.77 381.037 1295.86 382.293 1295.95L382.34 1295.95C388.768 1296.41 395.33 1296.88 402.221 1296.88ZM451.43 1365.28V1420C453.229 1420.9 455.029 1421.44 457.189 1421.44C468.35 1421.44 475.549 1406.32 475.549 1377.7C475.549 1361.68 473.209 1349.8 465.828 1349.8C462.408 1349.8 457.01 1352.14 451.43 1365.28ZM451.43 1440.34C451.43 1448.44 452.328 1459.24 455.209 1466.8H413.629C416.51 1459.24 417.408 1448.44 417.408 1440.34V1361.14C417.408 1353.04 416.51 1342.24 413.629 1334.68H451.43V1347.28C458.809 1338.28 469.248 1332.88 479.689 1332.88C496.609 1332.88 511.549 1346.92 511.549 1376.08C511.549 1412.62 487.789 1430.8 459.168 1430.8C456.648 1430.8 453.949 1430.8 451.43 1430.62V1440.34ZM558.316 1332.88C591.438 1332.88 606.377 1347.82 606.377 1377.34V1402.54C606.377 1410.64 607.277 1421.44 609.977 1429H572.357V1416.4C564.797 1425.4 554.176 1430.8 543.197 1430.8C528.256 1430.8 517.816 1420.72 517.816 1405.6C517.816 1384.9 537.617 1372.48 563.717 1372.48C566.416 1372.48 569.297 1372.48 571.996 1372.84C571.096 1353.94 566.777 1342.24 557.416 1342.24C548.236 1342.24 542.297 1353.4 536.357 1365.28L529.336 1334.68C534.629 1334.68 538.883 1334.25 543.225 1333.81C547.74 1333.35 552.35 1332.88 558.316 1332.88ZM572.357 1398.4V1383.46C570.377 1382.38 568.396 1381.84 566.057 1381.84C558.496 1381.84 553.816 1388.14 553.816 1400.2C553.816 1407.22 555.617 1413.88 559.217 1413.88C561.197 1413.88 566.596 1411.54 572.357 1398.4ZM617.158 1381.12C617.158 1351.6 637.857 1332.88 671.879 1332.88C675.924 1332.88 679.893 1333.13 683.844 1333.45C685.141 1333.55 686.434 1333.66 687.729 1333.77L687.811 1333.78C690.797 1334.04 693.785 1334.29 696.795 1334.46C699.092 1334.6 701.402 1334.68 703.738 1334.68L696.719 1365.28C690.777 1353.4 684.838 1342.24 673.857 1342.24C660.898 1342.24 653.158 1358.26 653.158 1382.74C653.158 1406.32 660.357 1421.44 673.498 1421.44C684.838 1421.44 690.777 1410.28 696.719 1398.4L703.738 1429C698.27 1429 692.938 1429.46 687.676 1429.92L687.617 1429.92C682.508 1430.37 677.463 1430.8 672.418 1430.8C640.918 1430.8 617.158 1412.62 617.158 1381.12ZM708.037 1381.12C708.037 1351.6 728.736 1332.88 755.736 1332.88C785.617 1332.88 796.598 1355.38 796.598 1380.94V1390.3H744.396C746.197 1410.28 753.037 1421.44 764.377 1421.44C775.717 1421.44 781.656 1410.28 787.598 1398.4L794.617 1429C791.375 1429 788.18 1429.16 785.02 1429.39C782.85 1429.54 780.697 1429.73 778.555 1429.92C773.426 1430.36 768.361 1430.8 763.297 1430.8C731.797 1430.8 708.037 1412.62 708.037 1381.12ZM744.037 1379.5V1380.94H766.178C766.178 1358.08 763.117 1342.42 755.918 1342.42C748.537 1342.42 744.037 1358.26 744.037 1379.5ZM805.086 1429L812.105 1398.4C818.045 1410.28 823.984 1421.44 839.645 1421.44C848.465 1421.44 853.865 1417.84 853.865 1412.08C853.865 1404.28 844.328 1399.05 833.689 1393.21C820.266 1385.85 805.086 1377.53 805.086 1361.86C805.086 1343.5 825.426 1332.88 852.785 1332.88C858.662 1332.88 864.258 1333.35 869.74 1333.81C872.951 1334.08 876.125 1334.34 879.293 1334.51C881.316 1334.61 883.338 1334.68 885.365 1334.68L878.525 1365.28C872.406 1353.4 866.645 1342.24 854.406 1342.24C846.666 1342.24 840.365 1346.74 840.365 1352.68C840.365 1360.03 849.984 1365.36 860.674 1371.29L860.691 1371.29C874.078 1378.71 889.145 1387.05 889.145 1401.46C889.145 1420.18 863.945 1430.8 837.305 1430.8C831.68 1430.8 826.283 1430.34 820.93 1429.89L820.871 1429.88C815.625 1429.44 810.422 1429 805.086 1429Z" fill="#EAE5E1"/>
</svg>
